<svg height="512" viewBox="0 0 256 256" width="512" xmlns="http://www.w3.org/2000/svg"><path d="m128 25.589a52.718 52.718 0 0 1 52.718 52.718v22.06a0 0 0 0 1 0 0h-105.436a0 0 0 0 1 0 0v-22.061a52.718 52.718 0 0 1 52.718-52.717z" fill="#fcc24c"/><path d="m180.718 102.366h-105.436a2 2 0 0 1 -2-2v-22.059a54.718 54.718 0 1 1 109.436 0v22.059a2 2 0 0 1 -2 2zm-103.436-4h101.436v-20.059a50.718 50.718 0 1 0 -101.436 0z" fill="#690589"/><path d="m105.788 165.654v-41.872h44.625v41.872h40.292a28.386 28.386 0 0 1 28.224 28.446v57.9h-181.858v-58.135a28.325 28.325 0 0 1 28.371-28.224z" fill="#526faa"/><path d="m150.413 165.654v-41.872h-44.625v41.872l-15.692-.005v86.351h76.01v-86.346z" fill="#fcc24c"/><path d="m128.1 209.317a38.006 38.006 0 0 0 38-38v-5.658h-15.687v-41.877h-44.625v41.872h-15.692v5.663a38.005 38.005 0 0 0 38.004 38z" fill="#ff9f70"/><path d="m128.1 211.317a40.05 40.05 0 0 1 -40-40v-5.663a2 2 0 0 1 4 0v5.663a36 36 0 1 0 72.009 0v-5.658a2 2 0 0 1 4 0v5.658a40.05 40.05 0 0 1 -40.009 40z" fill="#690589"/><path d="m190.705 165.654h-9.914a28.376 28.376 0 0 1 28.224 28.432v57.914h9.914v-57.9a28.386 28.386 0 0 0 -28.224-28.446z" fill="#34518c"/><path d="m65.442 165.641 9.913.013a28.323 28.323 0 0 0 -28.37 28.224v58.122h-9.914v-58.135a28.325 28.325 0 0 1 28.371-28.224z" fill="#708dc8"/><g fill="#690589"><path d="m72.179 253.008a2 2 0 0 1 -2-2v-25.8a2 2 0 0 1 4 0v25.8a2 2 0 0 1 -2 2z"/><path d="m183.821 253.008a2 2 0 0 1 -2-2v-25.8a2 2 0 0 1 4 0v25.8a2 2 0 0 1 -2 2z"/><path d="m218.929 254h-181.858a2 2 0 0 1 -2-2v-58.135a30.323 30.323 0 0 1 30.329-30.223h.04l38.344.012v-39.872a2 2 0 0 1 2-2h44.625a2 2 0 0 1 2 2v39.872h38.292a29.976 29.976 0 0 1 21.394 8.969 30.283 30.283 0 0 1 8.83 21.478v57.899a2 2 0 0 1 -1.996 2zm-179.858-4h177.858v-55.9a26.309 26.309 0 0 0 -7.673-18.66 26 26 0 0 0 -18.554-7.784h-40.289a2 2 0 0 1 -2-2v-39.874h-40.625v39.872a2 2 0 0 1 -2 2l-40.347-.012h-.034a26.32 26.32 0 0 0 -26.335 26.226z"/><path d="m47.177 214.954a2 2 0 0 1 -2-2v-12a2 2 0 0 1 4 0v12a2 2 0 0 1 -2 2z"/><path d="m166.105 254h-76.005a2 2 0 0 1 -2-2v-86.351a2 2 0 0 1 2-2h13.691v-39.867a2 2 0 0 1 2-2h44.625a2 2 0 0 1 2 2v39.872h13.692a2 2 0 0 1 2 2v86.346a2 2 0 0 1 -2.003 2zm-74.005-4h72.009v-82.346h-13.696a2 2 0 0 1 -2-2v-39.872h-40.625v39.872a2 2 0 0 1 -2 2h-13.691z"/></g><path d="m83.809 85.584h-3.158a14.782 14.782 0 0 0 0 29.564h3.158z" fill="#ffbd8e"/><path d="m175.431 85.584h-3.158v29.564h3.158a14.782 14.782 0 0 0 0-29.564z" fill="#e18152"/><path d="m128.041 160.726c-24.429 0-44.232-20.06-44.232-44.806v-31.02c0-24.746 19.8-44.806 44.232-44.806 24.429 0 44.232 20.06 44.232 44.806v31.02c0 24.746-19.803 44.806-44.232 44.806z" fill="#ff9f70"/><path d="m128.041 40.094a44.144 44.144 0 0 0 -5.026.3 44.6 44.6 0 0 1 39.205 44.506v31.02a44.6 44.6 0 0 1 -39.2 44.51 44.144 44.144 0 0 0 5.026.3c24.429 0 44.232-20.06 44.232-44.806v-31.024c-.005-24.746-19.808-44.806-44.237-44.806z" fill="#e18152"/><path d="m128.041 40.094a44.148 44.148 0 0 1 5.027.3 44.6 44.6 0 0 0 -39.206 44.506v31.02a44.6 44.6 0 0 0 39.206 44.51 44.148 44.148 0 0 1 -5.027.3c-24.429 0-44.232-20.06-44.232-44.806v-31.024c0-24.746 19.803-44.806 44.232-44.806z" fill="#ffbd8e"/><path d="m128.041 162.727c-25.492 0-46.231-21-46.231-46.807v-31.02c0-25.809 20.739-46.806 46.231-46.806s46.232 21 46.232 46.806v31.02c0 25.809-20.74 46.807-46.232 46.807zm0-120.633c-23.286 0-42.231 19.2-42.231 42.806v31.02c0 23.6 18.945 42.807 42.231 42.807s42.232-19.2 42.232-42.807v-31.02c0-23.6-18.945-42.806-42.232-42.806z" fill="#690589"/><path d="m83.81 117.148h-3.159a16.782 16.782 0 0 1 0-33.564h3.159a2 2 0 0 1 2 2v29.564a2 2 0 0 1 -2 2zm-3.159-29.564a12.782 12.782 0 0 0 0 25.564h1.159v-25.564z" fill="#690589"/><path d="m175.432 117.148h-3.159a2 2 0 0 1 -2-2v-29.564a2 2 0 0 1 2-2h3.159a16.782 16.782 0 0 1 0 33.564zm-1.159-4h1.159a12.782 12.782 0 0 0 0-25.564h-1.159z" fill="#690589"/><path d="m128 233.436a47.154 47.154 0 0 1 -47.1-47.1v-20.694a2 2 0 0 1 4 0v20.694a43.1 43.1 0 0 0 86.2 0v-20.694a2 2 0 0 1 4 0v20.694a47.154 47.154 0 0 1 -47.1 47.1z" fill="#690589"/><circle cx="128" cy="233.634" fill="#fcc24c" r="9.416" transform="matrix(.924 -.383 .383 .924 -79.664 66.768)"/><path d="m128 245.049a11.416 11.416 0 1 1 11.415-11.415 11.428 11.428 0 0 1 -11.415 11.415zm0-18.831a7.416 7.416 0 1 0 7.415 7.416 7.424 7.424 0 0 0 -7.415-7.416z" fill="#690589"/><path d="m127.035 4h2.076a51.68 51.68 0 0 1 51.68 51.68v19.84a0 0 0 0 1 0 0h-105.436a0 0 0 0 1 0 0v-19.84a51.68 51.68 0 0 1 51.68-51.68z" fill="#526faa"/><path d="m129.111 4h-2.076c-.984 0-1.959.034-2.93.088a51.678 51.678 0 0 1 48.75 51.592v19.84h7.936v-19.84a51.679 51.679 0 0 0 -51.68-51.68z" fill="#34518c"/><path d="m127.035 4h2.076c.984 0 1.96.034 2.93.088a51.678 51.678 0 0 0 -48.75 51.592v19.84h-7.936v-19.84a51.68 51.68 0 0 1 51.68-51.68z" fill="#708dc8"/><path d="m180.791 77.52h-105.436a2 2 0 0 1 -2-2v-19.84a53.741 53.741 0 0 1 53.68-53.68h2.076a53.741 53.741 0 0 1 53.68 53.68v19.84a2 2 0 0 1 -2 2zm-103.436-4h101.436v-17.84a49.736 49.736 0 0 0 -49.68-49.68h-2.076a49.736 49.736 0 0 0 -49.68 49.68z" fill="#690589"/><path d="m154.436 58.211h-87.093a8.655 8.655 0 0 0 -8.654 8.654 8.655 8.655 0 0 0 8.654 8.655h87.093a8.655 8.655 0 0 0 8.655-8.655 8.655 8.655 0 0 0 -8.655-8.654z" fill="#f4efed"/><path d="m67.617 66.865a8.654 8.654 0 0 1 8.654-8.654h-8.928a8.655 8.655 0 0 0 -8.654 8.654 8.655 8.655 0 0 0 8.654 8.655h8.928a8.654 8.654 0 0 1 -8.654-8.655z" fill="#fff"/><path d="m154.163 66.865a8.655 8.655 0 0 1 -8.655 8.655h8.928a8.655 8.655 0 0 0 8.655-8.655 8.655 8.655 0 0 0 -8.655-8.654h-8.928a8.655 8.655 0 0 1 8.655 8.654z" fill="#d6d1cf"/><path d="m154.435 77.52h-87.092a10.655 10.655 0 0 1 0-21.309h87.092a10.655 10.655 0 1 1 0 21.309zm-87.092-17.309a6.655 6.655 0 0 0 0 13.309h87.092a6.655 6.655 0 1 0 0-13.309z" fill="#690589"/><path d="m194.088 174.381c1.377 3.629 6.288 5.131 10.968 3.355s7.359-6.157 5.981-9.787-6.287-5.131-10.968-3.355-7.358 6.158-5.981 9.787z" fill="#ff4397"/><ellipse cx="229.656" cy="162.776" fill="#ff4397" rx="9.064" ry="7.029" transform="matrix(.935 -.355 .355 .935 -42.809 92.062)"/><path d="m211.4 170.918a2 2 0 0 1 -2-2v-29.61a2 2 0 0 1 1.409-1.91l27.093-8.39a2 2 0 0 1 2.592 1.911v29.61a2 2 0 0 1 -4 0v-26.9l-23.094 7.154v28.135a2 2 0 0 1 -2 2z" fill="#690589"/><path d="m201.083 180.484a11.431 11.431 0 0 1 -3.335-.486 8.258 8.258 0 0 1 -5.53-4.908c-1.766-4.655 1.438-10.2 7.142-12.366a12.478 12.478 0 0 1 8.017-.392 8.256 8.256 0 0 1 5.53 4.908c1.766 4.655-1.438 10.2-7.142 12.366a13.224 13.224 0 0 1 -4.682.878zm-5.125-6.813a4.356 4.356 0 0 0 2.96 2.5 8.466 8.466 0 0 0 5.428-.307c3.581-1.358 5.788-4.658 4.821-7.207a4.353 4.353 0 0 0 -2.96-2.5 8.464 8.464 0 0 0 -5.429.307c-3.58 1.358-5.787 4.659-4.82 7.207z" fill="#690589"/><path d="m228.176 172.1a11.421 11.421 0 0 1 -3.335-.486 8.262 8.262 0 0 1 -5.531-4.908 8.263 8.263 0 0 1 .883-7.341 13 13 0 0 1 14.277-5.417 7.971 7.971 0 0 1 4.648 12.248 12.476 12.476 0 0 1 -6.259 5.026 13.256 13.256 0 0 1 -4.683.878zm2.957-14.64a9.247 9.247 0 0 0 -3.262.619 8.471 8.471 0 0 0 -4.265 3.372 4.356 4.356 0 0 0 -.555 3.836 4.358 4.358 0 0 0 2.961 2.5 9.017 9.017 0 0 0 9.693-3.679 4 4 0 0 0 -2.405-6.337 7.408 7.408 0 0 0 -2.167-.316z" fill="#690589"/><path d="m17.87 155.436c1.377 3.63 6.287 5.132 10.968 3.356s7.358-6.158 5.981-9.787-6.288-5.132-10.968-3.356-7.358 6.158-5.981 9.787z" fill="#ff4397"/><path d="m44.963 147.047c1.377 3.629 6.287 5.131 10.968 3.356s7.358-6.158 5.981-9.788-6.288-5.131-10.968-3.355-7.358 6.158-5.981 9.787z" fill="#ff4397"/><path d="m35.181 151.974a2 2 0 0 1 -2-2v-29.61a2 2 0 0 1 1.408-1.911l27.093-8.389a2 2 0 0 1 2.591 1.911v29.609a2 2 0 1 1 -4 0v-26.9l-23.092 7.15v28.136a2 2 0 0 1 -2 2.004z" fill="#690589"/><path d="m24.9 161.529c-4.048 0-7.617-2-8.9-5.383a8.256 8.256 0 0 1 .882-7.341 12.482 12.482 0 0 1 6.259-5.026 12.474 12.474 0 0 1 8.018-.391 8.258 8.258 0 0 1 5.531 4.907c1.765 4.655-1.439 10.2-7.143 12.367a13.106 13.106 0 0 1 -4.647.867zm2.922-14.629a9.229 9.229 0 0 0 -3.262.619 8.468 8.468 0 0 0 -4.265 3.372 4.356 4.356 0 0 0 -.555 3.836c.968 2.548 4.808 3.553 8.389 2.195s5.787-4.659 4.82-7.208a4.358 4.358 0 0 0 -2.96-2.5 7.408 7.408 0 0 0 -2.167-.314z" fill="#690589"/><path d="m51.957 153.15a11.386 11.386 0 0 1 -3.334-.486 8.256 8.256 0 0 1 -5.53-4.908c-1.766-4.654 1.438-10.2 7.142-12.366a12.484 12.484 0 0 1 8.017-.39 8.258 8.258 0 0 1 5.53 4.908c1.766 4.654-1.438 10.2-7.142 12.367a13.25 13.25 0 0 1 -4.683.875zm2.958-14.64a9.222 9.222 0 0 0 -3.261.62c-3.581 1.358-5.788 4.659-4.821 7.207a4.351 4.351 0 0 0 2.96 2.5 8.474 8.474 0 0 0 5.428-.306c3.581-1.359 5.788-4.66 4.821-7.208a4.356 4.356 0 0 0 -2.96-2.5 7.413 7.413 0 0 0 -2.167-.313z" fill="#690589"/><path d="m180.718 85.584v12.953a23.9 23.9 0 0 1 -23.9 23.9 23.9 23.9 0 0 1 -22.287-15.263 6.656 6.656 0 0 0 -6.189-4.3h-.676a6.656 6.656 0 0 0 -6.189 4.3 23.9 23.9 0 0 1 -22.287 15.263 23.9 23.9 0 0 1 -23.9-23.9v-12.953z" fill="#526faa"/><path d="m172.782 85.584v12.953a23.907 23.907 0 0 1 -19.93 23.569 24.053 24.053 0 0 0 3.962.335 23.9 23.9 0 0 0 23.9-23.9v-12.957z" fill="#34518c"/><path d="m83.218 85.584v12.953a23.907 23.907 0 0 0 19.93 23.569 24.053 24.053 0 0 1 -3.962.335 23.9 23.9 0 0 1 -23.9-23.9v-12.957z" fill="#708dc8"/><path d="m156.814 124.441a25.737 25.737 0 0 1 -24.151-16.54 4.642 4.642 0 0 0 -4.325-3.021h-.676a4.641 4.641 0 0 0 -4.325 3.022 25.9 25.9 0 0 1 -50.055-9.365v-12.953a2 2 0 0 1 2-2h105.436a2 2 0 0 1 2 2v12.953a25.934 25.934 0 0 1 -25.904 25.904zm-29.152-23.561h.676a8.615 8.615 0 0 1 8.054 5.575 21.9 21.9 0 0 0 42.326-7.918v-10.953h-101.436v10.953a21.9 21.9 0 0 0 42.326 7.918 8.615 8.615 0 0 1 8.054-5.575z" fill="#690589"/></svg>